PathFileType	4	(X/Y/Z)	Patient4_TMGait_0pt5_02_left_28.trc.trc
DataRate	CameraRate	NumFrames	NumMarkers	Units	OrigDataRate	OrigDataStartFrame	OrigNumFrames
73.298429319372	73.298429319372	4	33	mm	73.298429319372	1	       141
Frame#	Time	Sacral			L.Shoulder			Chest			R.Shoulder			Neck			R.ASIS			L.ASIS			R.Thigh.Superior			R.Thigh.Lateral			R.Thigh.Inferior			R.Patella			L.Thigh.Superior			L.Thigh.Lateral			L.Thigh.Inferior			L.Patella			L.Shank.Superior			L.Shank.Lateral			L.Shank.Inferior			R.Shank.Superior			R.Shank.Lateral			R.Shank.Inferior			R.Heel			R.Midfoot.Superior			R.Midfoot.Lateral			R.Toe			L.Heel			L.Midfoot.Lateral			L.Midfoot.Superior			L.Toe			L.Elbow			L.Wrist			R.Elbow			R.Wrist			
		X1	Y1	Z1	X2	Y2	Z2	X3	Y3	Z3	X4	Y4	Z4	X5	Y5	Z5	X6	Y6	Z6	X7	Y7	Z7	X8	Y8	Z8	X9	Y9	Z9	X10	Y10	Z10	X11	Y11	Z11	X12	Y12	Z12	X13	Y13	Z13	X14	Y14	Z14	X15	Y15	Z15	X16	Y16	Z16	X17	Y17	Z17	X18	Y18	Z18	X19	Y19	Z19	X20	Y20	Z20	X21	Y21	Z21	X22	Y22	Z22	X23	Y23	Z23	X24	Y24	Z24	X25	Y25	Z25	X26	Y26	Z26	X27	Y27	Z27	X28	Y28	Z28	X29	Y29	Z29	X30	Y30	Z30	X31	Y31	Z31	X32	Y32	Z32	X33	Y33	Z33	

1	35.800000000000	657.238039737883	1003.720217612267	495.541559094044	835.333790807308	1434.380780970968	324.173597487115	931.872463875197	1365.670459726359	489.932155122939	838.750526903012	1435.867292890537	661.881287240046	825.873131430363	1494.605713615682	476.986416161405	880.631187887157	943.248264919517	621.946013865275	877.087038639993	960.485685023970	348.095673631364	927.172120878916	742.355915260274	595.657558749136	840.887932564770	633.326881154959	646.599633287336	922.820358055153	580.954840121836	571.122618627163	921.454299238768	491.432020617918	573.572475395315	952.325566288913	768.532568690100	375.459760564458	907.458140953517	646.194225857949	294.346648200053	1006.345182726217	579.911022155637	357.901964092538	1015.248058720263	488.233418349280	351.013176816485	943.033462074516	424.817295191477	342.627531705137	799.740814482012	397.033810819831	288.300680013719	769.833988767450	270.980035999847	344.721175495874	892.083974903491	403.273543350586	576.991233369196	817.189477837446	300.348524701694	633.777198092612	857.939116727504	205.693663402201	570.005299784190	719.830156853825	44.027697366789	533.195263430523	890.445237930920	97.288654041797	575.933221037054	800.295343830445	36.803801700199	610.988242818735	1009.018571991753	41.451916733585	608.424370977451	572.565464036007	242.139874791057	374.362349682003	621.645249185251	178.540283338858	300.701256090657	725.600736019373	165.559533316791	325.903817956561	778.187544598752	37.253942901051	310.517755026495	816.152718587791	1075.793651121369	215.548920377108	895.116336641558	826.638890631577	206.416635298996	832.975016960203	1092.079911072096	790.139115457500	1029.154561671576	922.854493832693	762.236675158040	
2	35.813642857143	655.814652694889	1004.894371853335	497.658358508790	833.990511309403	1434.820912249095	324.947830896589	931.992476531803	1365.845943889298	489.661298938995	840.999278777630	1436.537356978427	662.331909639246	826.314611506473	1495.027984545450	477.676734631013	879.852118555971	943.254802114294	622.211779891948	874.265201945251	961.367475655689	348.583508807743	923.763216761525	741.542755763251	595.296655379743	836.914179646132	633.341363142334	646.813047612215	917.734839603323	580.245038385183	570.772340775115	915.548065576305	490.929440668436	573.106025213366	952.594764973217	773.511691414778	376.767946445174	910.724015809626	650.510178191106	295.111312114244	1011.405589820840	586.671516929017	358.639625280177	1023.037321426236	495.498842374295	351.730474598596	953.427789164416	429.834105797699	343.123019334366	811.723670789608	396.153636516295	288.461578984586	787.392782508991	268.993272309726	344.566830989257	885.841409286104	403.063170492336	576.862663500566	810.679344408503	300.387919338258	633.827240141720	851.130375527276	205.619011721388	569.995720837318	712.433181048305	43.983674625970	533.177411519788	883.188811531091	97.274678906190	575.977720309252	792.986117914487	36.819738149009	611.115529153886	1001.676815022375	41.551566723692	608.510594838408	591.955956510374	230.585170687604	374.204568140610	643.852677044706	170.445397879055	299.854019455230	748.119231653567	162.534123163234	324.864920825546	806.904153569833	37.534607405471	308.101330574657	807.437353867937	1076.701944774166	217.225187349516	876.415936360125	825.471263148986	208.850478773049	843.867482992534	1094.222087251504	792.266039143728	1048.740874291247	940.278556894189	760.623728297065	
3	35.827285714286	654.402036136714	1006.080022631286	499.743936164386	832.659030791180	1435.259345002723	325.714045704730	932.136950231179	1365.993534302902	489.355515137317	843.313228888488	1437.184107314469	662.769759369465	826.773365953673	1495.439132630756	478.351622903511	879.078457234400	943.250055153987	622.463068427555	871.452068248838	962.248615230553	349.031591503712	920.314174722699	740.722182707397	594.858698238859	832.918707339906	633.355198286239	647.008497793977	912.582763785561	579.533695283428	570.379048863526	909.576496748839	490.440122292989	572.625431084987	952.760912413983	778.398169434922	378.035868918058	913.828073491609	654.723814304291	295.866635252252	1016.182498923896	593.261281142664	359.384921475542	1030.482813807618	502.647593960194	352.446860086484	963.592844881925	434.758860624790	343.597955114745	823.658688689027	394.951854902208	288.595231763189	805.191518815951	266.723025212065	344.359718654139	879.558741186014	402.856321415018	576.727478988715	804.145742698728	300.418268530095	633.866452312752	844.310613661862	205.542521367016	569.979948536072	705.073151460687	43.928860709627	533.166559951432	875.948289574969	97.256921013266	576.011355929190	785.703275703698	36.830016137002	611.238138004154	994.359574135501	41.662009683101	608.589546333426	611.877341748634	218.388679534090	373.965460502814	666.621800858171	161.884152791296	298.936293421770	771.108310031668	159.248837350010	323.785515570244	836.264111673596	37.812564014447	305.649025696967	798.698441288116	1077.675587045521	218.814975720856	857.969019635299	824.460161365681	211.262226341317	854.698384523380	1096.352093468568	794.308890490714	1067.969994203002	957.752225431294	758.891166182846	
4	35.840928571429	653.023526603957	1007.264034159964	501.759997373538	831.359190539217	1435.683449579821	326.451355945472	932.323781347630	1366.083704778987	488.981397033059	845.723881054146	1437.775547279599	663.170162147731	827.262262720687	1495.819345034827	478.985125238125	878.324443753872	943.218353258057	622.656114228954	868.678848503032	963.107388061648	349.395798290677	916.832905319130	739.891288946789	594.296451639451	828.921851521562	633.362970374959	647.172488227736	907.361231818694	578.819402747075	569.918602018531	903.539998047282	489.971290688706	572.125892386426	952.711501659804	783.025708098085	379.211555348785	916.570922495792	658.685122661300	296.573081382019	1020.353702434165	599.435132353455	360.133815094028	1037.199721682114	509.503521526412	353.152837865877	973.233114400049	439.479569503751	344.028656878738	835.465009960517	393.194367503369	288.662230707272	823.330764218179	264.044469499217	344.073682225871	873.249376237683	402.649299630121	576.578967047290	797.613180287965	300.431045604275	633.888161716650	837.505957560318	205.459609544541	569.952699084119	697.805022797666	43.857868833902	533.167350697572	868.764163823814	97.232755059893	576.026121363335	778.493738410889	36.831070491200	611.352348181707	987.113981635094	41.787927614313	608.655585611594	632.742690334053	205.243196389101	373.586407502389	690.362560008610	152.674732516771	297.926593288262	794.835870953795	155.650339839935	322.677056239142	866.592274199896	38.275373995760	303.237725211425	789.975304578992	1078.757532252949	220.247783806900	840.087238033051	823.735071130499	213.617498171696	865.373303637376	1098.446414652151	796.157822406686	1086.412704254322	975.206097983071	756.922346129720	
